<?xml version="1.0" encoding="utf-8"?>
<!-- Generator: Adobe Illustrator 23.0.1, SVG Export Plug-In . SVG Version: 6.00 Build 0)  -->
<svg version="1.1" id="Layer_1" xmlns="http://www.w3.org/2000/svg" xmlns:xlink="http://www.w3.org/1999/xlink" x="0px" y="0px"
	 viewBox="0 0 1000 1000"  style="enable-background:new 0 0 1000 1000;" xml:space="preserve">
<g>
	<path  d="M42,359.58v-14.7c0-2.26,1.23-4.34,3.21-5.42l175.19-95.75c4.12-2.25,9.14,0.73,9.14,5.42v20.13
		c0,2.26-1.24,4.35-3.23,5.43L93.03,347c-4.32,2.34-4.3,8.55,0.03,10.87l133.22,71.33c2.01,1.07,3.26,3.17,3.26,5.44v20.68
		c0,4.69-5.02,7.67-9.14,5.42L45.21,365C43.23,363.92,42,361.84,42,359.58z"/>
	<path  d="M430.78,484.89l-89.52-149.56c-10.13-16.92-36.1-9.74-36.1,9.98v136.41c0,3.41-2.76,6.18-6.18,6.18h-21.77
		c-3.41,0-6.18-2.76-6.18-6.18V222.75c0-3.41,2.76-6.18,6.18-6.18h24.48c2.17,0,4.17,1.13,5.29,2.99l88.47,146.87
		c10.16,16.86,36.07,9.66,36.07-10.03V222.75c0-3.41,2.76-6.18,6.18-6.18h20.68c3.41,0,6.18,2.76,6.18,6.18v258.97
		c0,3.41-2.76,6.18-6.18,6.18h-22.31C433.91,487.89,431.9,486.75,430.78,484.89z"/>
	<path  d="M388.9,889.32L610.75,99.05c0.75-2.66,3.18-4.51,5.95-4.51h22.31c4.1,0,7.06,3.91,5.94,7.86L421.47,892.67
		c-0.75,2.66-3.18,4.49-5.94,4.49h-20.68C390.76,897.16,387.8,893.26,388.9,889.32z"/>
	<path  d="M708.28,557.1c-18.73-12.61-42.03-19.01-69.28-19.01c-20.15,0-44.63-1.23-66.67,2.43l0,0
		c-2.98,0.49-5.16,3.07-5.16,6.09v259.34c0,3.41,2.76,6.18,6.18,6.18h24.31c3.41,0,6.18-2.76,6.18-6.18v-94.41
		c0-3.67,3.18-6.54,6.83-6.12c6.79,0.77,13.69,1.17,20.64,1.17c0,0,1.64,0.02,2.45,0.02c28.36,0,52.53-6.58,71.85-19.59
		c23.45-16.02,35.34-38.97,35.34-68.21C740.93,592.84,729.97,572.09,708.28,557.1z M634.78,676.28c-0.12,0-0.25,0-0.37,0
		c-16.94-0.08-30.58-13.95-30.58-30.89v-45.54c0-17,13.72-30.76,30.72-30.89c1.28-0.01,2.58-0.01,3.9-0.01
		c47.09,0,69.98,16.84,69.98,51.49c0,34.65-23.59,52.9-72.1,55.79C635.83,676.26,635.3,676.28,634.78,676.28z"/>
	<path  d="M773.71,752.1l133.25-71.82c4.33-2.33,4.33-8.54,0-10.87l-133.25-71.82c-2-1.08-3.25-3.17-3.25-5.44v-20.14
		c0-4.69,5.02-7.67,9.14-5.42l175.19,95.75c1.98,1.08,3.21,3.16,3.21,5.42v14.7c0,2.26-1.23,4.34-3.21,5.42L779.6,783.64
		c-4.12,2.25-9.14-0.73-9.14-5.42v-20.68C770.46,755.26,771.71,753.18,773.71,752.1z"/>
	<g>
		<path  d="M390.66,808.31h-185.5c-9.73,0-17.62-7.89-17.62-17.62V456.87l-23.97-13.1v346.92
			c0,22.97,18.62,41.59,41.59,41.59H387.4c2.77,0,5.2-1.84,5.95-4.51l3.26-11.62C397.71,812.22,394.75,808.31,390.66,808.31z"/>
	</g>
	<g>
		<path  d="M836.43,201.02c0-22.97-18.62-41.59-41.59-41.59h-148.5c-2.76,0-5.19,1.84-5.94,4.5l-3.29,11.62
			c-1.11,3.94,1.85,7.86,5.94,7.86h151.79c9.73,0,17.62,7.89,17.62,17.62v369.45l23.97,13.1V201.02z"/>
	</g>
</g>
</svg>
